<?xml version="1.0" encoding="UTF-8" standalone="no"?>
<svg
   viewBox="0 0 261.76 226.69"
   version="1.1"
   id="svg6"
   sodipodi:docname="logo.svg"
   inkscape:version="1.1.2 (0a00cf5339, 2022-02-04)"
   xmlns:inkscape="http://www.inkscape.org/namespaces/inkscape"
   xmlns:sodipodi="http://sodipodi.sourceforge.net/DTD/sodipodi-0.dtd"
   xmlns="http://www.w3.org/2000/svg"
   xmlns:svg="http://www.w3.org/2000/svg">
  <defs
     id="defs10">
    <inkscape:path-effect
       effect="spiro"
       id="path-effect7094"
       is_visible="true"
       lpeversion="1" />
    <inkscape:path-effect
       effect="spiro"
       id="path-effect6773"
       is_visible="true"
       lpeversion="1" />
    <inkscape:path-effect
       effect="spiro"
       id="path-effect6767"
       is_visible="true"
       lpeversion="1" />
    <inkscape:path-effect
       effect="spiro"
       id="path-effect6538"
       is_visible="true"
       lpeversion="1" />
  </defs>
  <sodipodi:namedview
     id="namedview8"
     pagecolor="#ffffff"
     bordercolor="#666666"
     borderopacity="1.0"
     inkscape:pageshadow="2"
     inkscape:pageopacity="0.0"
     inkscape:pagecheckerboard="0"
     showgrid="false"
     inkscape:zoom="0.68078015"
     inkscape:cx="318.75195"
     inkscape:cy="92.540888"
     inkscape:window-width="1920"
     inkscape:window-height="1011"
     inkscape:window-x="0"
     inkscape:window-y="0"
     inkscape:window-maximized="1"
     inkscape:current-layer="svg6" />
  <path
     style="font-variation-settings:normal;opacity:1;vector-effect:none;fill:none;fill-opacity:1;stroke:#a16207;stroke-width:10;stroke-linecap:square;stroke-linejoin:round;stroke-miterlimit:4;stroke-dasharray:none;stroke-dashoffset:0;stroke-opacity:1;-inkscape-stroke:none;stop-color:#000000;stop-opacity:1"
     d="M 90.605193,154.52415 H 15.187147"
     id="path7090"
     inkscape:path-effect="#path-effect7094"
     inkscape:original-d="m 90.605193,154.52415 c -63.411866,0.001 -11.94714,0.001 -75.418046,0"
     sodipodi:nodetypes="cc" />
  <path
     style="font-variation-settings:normal;opacity:1;vector-effect:none;fill:none;fill-opacity:1;stroke:#0f766e;stroke-width:10;stroke-linecap:square;stroke-linejoin:round;stroke-miterlimit:4;stroke-dasharray:none;stroke-dashoffset:0;stroke-opacity:1;-inkscape-stroke:none;stop-color:#000000;stop-opacity:1"
     d="M 246.97916,105.89126 H 96.989913"
     id="path6763"
     inkscape:path-effect="#path-effect6767"
     inkscape:original-d="m 246.97916,105.89126 c -63.41186,10e-4 -86.51835,10e-4 -149.989247,0"
     sodipodi:nodetypes="cc" />
  <path
     style="font-variation-settings:normal;opacity:1;vector-effect:none;fill:none;fill-opacity:1;stroke:#0369a1;stroke-width:10;stroke-linecap:square;stroke-linejoin:round;stroke-miterlimit:4;stroke-dasharray:none;stroke-dashoffset:0;stroke-opacity:1;-inkscape-stroke:none;stop-color:#000000;stop-opacity:1"
     d="M 93.183193,18.275062 V 208.69076"
     id="path6536"
     inkscape:path-effect="#path-effect6538"
     inkscape:original-d="m 93.183193,18.275062 c 10e-4,63.41186 10e-4,126.944798 0,190.415698" />
  <path
     id="path926"
     style="fill:#3b82f6;fill-rule:evenodd;stroke-width:31.3128;stroke-linejoin:round;stop-color:#000000"
     d="m 168.03637,18.03654 a 40.124016,40.124016 0 0 0 -40.12428,40.123553 40.124016,40.124016 0 0 0 40.12428,40.12429 40.124016,40.124016 0 0 0 40.12355,-40.12429 40.124016,40.124016 0 0 0 -40.12355,-40.123553 z m 0,6.541047 a 33.582781,33.582781 0 0 1 33.58251,33.582506 33.582781,33.582781 0 0 1 -33.58251,33.583248 33.582781,33.582781 0 0 1 -33.58324,-33.583248 33.582781,33.582781 0 0 1 33.58324,-33.582506 z" />
  <path
     id="circle1090"
     style="fill:#f43f5e;fill-rule:evenodd;stroke-width:20.0186;stroke-linejoin:round;stop-color:#000000"
     d="M 168.03637,32.508751 A 25.65181,25.65181 0 0 0 142.3843,58.160093 25.65181,25.65181 0 0 0 168.03637,83.812175 25.65181,25.65181 0 0 0 193.68771,58.160093 25.65181,25.65181 0 0 0 168.03637,32.508751 Z m 0,11.627233 a 14.023997,14.023997 0 0 1 14.02411,14.024109 14.023997,14.023997 0 0 1 -14.02411,14.024114 14.023997,14.023997 0 0 1 -14.02412,-14.024114 14.023997,14.023997 0 0 1 14.02412,-14.024109 z" />
  <path
     id="path926-5"
     style="fill:#3bf682;fill-rule:evenodd;stroke-width:35.3225;stroke-linejoin:round;stop-color:#000000"
     d="m 172.3141,115.88477 a 45.262045,45.262045 0 0 0 -45.26235,45.26153 45.262045,45.262045 0 0 0 45.26235,45.26235 45.262045,45.262045 0 0 0 45.26153,-45.26235 45.262045,45.262045 0 0 0 -45.26153,-45.26153 z m 0,7.37865 A 37.883181,37.883181 0 0 1 210.19698,161.1463 37.883181,37.883181 0 0 1 172.3141,199.03 37.883181,37.883181 0 0 1 134.43041,161.1463 37.883181,37.883181 0 0 1 172.3141,123.26342 Z" />
  <path
     id="circle1090-3"
     style="fill:#3f5ef4;fill-rule:evenodd;stroke-width:22.5821;stroke-linejoin:round;stop-color:#000000"
     d="m 172.3141,132.2102 a 28.936619,28.936619 0 0 0 -28.93691,28.9361 28.936619,28.936619 0 0 0 28.93691,28.93692 28.936619,28.936619 0 0 0 28.9361,-28.93692 28.936619,28.936619 0 0 0 -28.9361,-28.9361 z m 0,13.11615 a 15.819822,15.819822 0 0 1 15.81996,15.81995 15.819822,15.819822 0 0 1 -15.81996,15.81995 15.819822,15.819822 0 0 1 -15.81995,-15.81995 15.819822,15.819822 0 0 1 15.81995,-15.81995 z" />
  <rect
     style="fill:none;fill-opacity:1;fill-rule:evenodd;stroke:#1d4ed8;stroke-width:10;stroke-linecap:round;stroke-linejoin:round;stroke-miterlimit:4;stroke-dasharray:none;stroke-opacity:1;stop-color:#000000"
     id="rect1069"
     width="240.98793"
     height="205.08403"
     x="11.937458"
     y="10.833608" />
  <path
     id="path926-6"
     style="fill:#5e3ff4;fill-rule:evenodd;stroke-width:25.4191;stroke-linejoin:round;stop-color:#000000"
     d="M 52.090064,47.64193 A 32.571926,32.571926 0 0 0 19.517921,80.21348 32.571926,32.571926 0 0 0 52.090064,112.78563 32.571926,32.571926 0 0 0 84.661618,80.21348 32.571926,32.571926 0 0 0 52.090064,47.64193 Z m 0,5.3099 A 27.261874,27.261874 0 0 1 79.351719,80.21348 27.261874,27.261874 0 0 1 52.090064,107.47573 27.261874,27.261874 0 0 1 24.82782,80.21348 27.261874,27.261874 0 0 1 52.090064,52.95183 Z" />
  <path
     id="circle1090-7"
     style="fill:#3f5ef4;fill-rule:evenodd;stroke-width:16.2508;stroke-linejoin:round;stop-color:#000000"
     d="M 52.090064,59.3902 A 20.82366,20.82366 0 0 0 31.26619,80.21348 20.82366,20.82366 0 0 0 52.090064,101.03736 20.82366,20.82366 0 0 0 72.913349,80.21348 20.82366,20.82366 0 0 0 52.090064,59.3902 Z m 0,9.43877 A 11.384419,11.384419 0 0 1 63.474578,80.21348 11.384419,11.384419 0 0 1 52.090064,91.598 11.384419,11.384419 0 0 1 40.705551,80.21348 11.384419,11.384419 0 0 1 52.090064,68.82897 Z" />
  <path
     id="path926-56"
     style="fill:#f43f5e;fill-rule:evenodd;stroke-width:17.6635;stroke-linejoin:round;stop-color:#000000"
     d="M 50.592355,163.36009 A 22.633883,22.633883 0 0 0 27.95832,185.99371 22.633883,22.633883 0 0 0 50.592355,208.62775 22.633883,22.633883 0 0 0 73.225976,185.99371 22.633883,22.633883 0 0 0 50.592355,163.36009 Z m 0,3.68979 A 18.943985,18.943985 0 0 1 69.53619,185.99371 18.943985,18.943985 0 0 1 50.592355,204.93796 18.943985,18.943985 0 0 1 31.648112,185.99371 18.943985,18.943985 0 0 1 50.592355,167.04988 Z" />
  <path
     id="circle1090-2"
     style="fill:#f4945e;fill-rule:evenodd;stroke-width:11.2925;stroke-linejoin:round;stop-color:#000000"
     d="M 50.592355,171.52384 A 14.470139,14.470139 0 0 0 36.122067,185.99371 14.470139,14.470139 0 0 0 50.592355,200.464 14.470139,14.470139 0 0 0 65.062232,185.99371 14.470139,14.470139 0 0 0 50.592355,171.52384 Z m 0,6.5589 a 7.9109108,7.9109108 0 0 1 7.910977,7.91097 7.9109108,7.9109108 0 0 1 -7.910977,7.91099 7.9109108,7.9109108 0 0 1 -7.910978,-7.91099 7.9109108,7.9109108 0 0 1 7.910978,-7.91097 z" />
</svg>
